<svg xmlns:xlink="http://www.w3.org/1999/xlink" version="1.1" class="highcharts-root" style="font-family: Helvetica, Arial, sans-serif; font-size: 1rem;" xmlns="http://www.w3.org/2000/svg" width="660" height="330" viewBox="0 0 660 330" aria-label="Interactive chart" aria-hidden="false"><desc aria-hidden="true">Created with Highcharts 11.4.1</desc><defs aria-hidden="true"><filter id="highcharts-drop-shadow-2"><feDropShadow dx="1" dy="1" flood-color="#000000" flood-opacity="0.75" stdDeviation="2.5"></feDropShadow></filter><clipPath id="highcharts-zivhft1-45-"><rect x="0" y="0" width="583" height="192" fill="none"></rect></clipPath></defs><rect fill="#fff" class="highcharts-background" filter="none" x="0" y="0" width="660" height="330" rx="0" ry="0" aria-hidden="true"></rect><rect fill="none" class="highcharts-plot-background" x="67" y="48" width="583" height="192" filter="none" aria-hidden="true"></rect><g class="highcharts-plot-lines-0" data-z-index="0" aria-hidden="true"><path fill="none" class="highcharts-plot-line " stroke="#808080" stroke-width="1"></path></g><rect fill="none" class="highcharts-plot-border" data-z-index="1" stroke="#cccccc" stroke-width="0" x="67" y="48" width="583" height="192" aria-hidden="true"></rect><g class="highcharts-grid highcharts-xaxis-grid" data-z-index="1" aria-hidden="true"><path fill="none" stroke="#e6e6e6" stroke-width="0" stroke-dasharray="none" data-z-index="1" class="highcharts-grid-line" d="M 139.5 48 L 139.5 240" opacity="1"></path><path fill="none" stroke="#e6e6e6" stroke-width="0" stroke-dasharray="none" data-z-index="1" class="highcharts-grid-line" d="M 212.5 48 L 212.5 240" opacity="1"></path><path fill="none" stroke="#e6e6e6" stroke-width="0" stroke-dasharray="none" data-z-index="1" class="highcharts-grid-line" d="M 285.5 48 L 285.5 240" opacity="1"></path><path fill="none" stroke="#e6e6e6" stroke-width="0" stroke-dasharray="none" data-z-index="1" class="highcharts-grid-line" d="M 358.5 48 L 358.5 240" opacity="1"></path><path fill="none" stroke="#e6e6e6" stroke-width="0" stroke-dasharray="none" data-z-index="1" class="highcharts-grid-line" d="M 430.5 48 L 430.5 240" opacity="1"></path><path fill="none" stroke="#e6e6e6" stroke-width="0" stroke-dasharray="none" data-z-index="1" class="highcharts-grid-line" d="M 503.5 48 L 503.5 240" opacity="1"></path><path fill="none" stroke="#e6e6e6" stroke-width="0" stroke-dasharray="none" data-z-index="1" class="highcharts-grid-line" d="M 576.5 48 L 576.5 240" opacity="1"></path><path fill="none" stroke="#e6e6e6" stroke-width="0" stroke-dasharray="none" data-z-index="1" class="highcharts-grid-line" d="M 649.5 48 L 649.5 240" opacity="1"></path><path fill="none" stroke="#e6e6e6" stroke-width="0" stroke-dasharray="none" data-z-index="1" class="highcharts-grid-line" d="M 66.5 48 L 66.5 240" opacity="1"></path></g><g class="highcharts-grid highcharts-yaxis-grid" data-z-index="1" aria-hidden="true"><path fill="none" stroke="#F5F6F8" stroke-width="1" stroke-dasharray="none" data-z-index="1" class="highcharts-grid-line" d="M 67 240.5 L 650 240.5" opacity="1"></path><path fill="none" stroke="#F5F6F8" stroke-width="1" stroke-dasharray="none" data-z-index="1" class="highcharts-grid-line" d="M 67 192.5 L 650 192.5" opacity="1"></path><path fill="none" stroke="#F5F6F8" stroke-width="1" stroke-dasharray="none" data-z-index="1" class="highcharts-grid-line" d="M 67 144.5 L 650 144.5" opacity="1"></path><path fill="none" stroke="#F5F6F8" stroke-width="1" stroke-dasharray="none" data-z-index="1" class="highcharts-grid-line" d="M 67 96.5 L 650 96.5" opacity="1"></path><path fill="none" stroke="#F5F6F8" stroke-width="1" stroke-dasharray="none" data-z-index="1" class="highcharts-grid-line" d="M 67 47.5 L 650 47.5" opacity="1"></path></g><g class="highcharts-axis highcharts-xaxis" data-z-index="2" aria-hidden="true"><path fill="none" class="highcharts-axis-line" stroke="#aaa" stroke-width="1" data-z-index="7" d="M 67 240.5 L 650 240.5"></path></g><g class="highcharts-axis highcharts-yaxis" data-z-index="2" aria-hidden="true"><path fill="none" class="highcharts-axis-line" stroke="#aaa" stroke-width="1" data-z-index="7" d="M 66.5 48 L 66.5 240"></path></g><g class="highcharts-series-group" data-z-index="3" filter="none" aria-hidden="false"><g class="highcharts-series highcharts-series-0 highcharts-spline-series" data-z-index="0.1" opacity="1" transform="translate(67,48) scale(1 1)" clip-path="url(#highcharts-zivhft1-45-)" aria-hidden="true"><path fill="none" d="M 36.4375 115.2 C 36.4375 115.2 80.1625 138.62400000000002 109.3125 141.312 C 138.4625 144 153.0375 144 182.1875 144 C 211.3375 144 225.9125 144 255.0625 143.664 C 284.2125 143.32799999999997 298.7875 98.136 327.9375 73.296 C 357.0875 48.456 371.6625 19.464 400.8125 19.464 C 429.9625 19.464 444.5375 80.736 473.6875 80.736 C 502.8375 80.736 546.5625 34.19999999999999 546.5625 34.19999999999999" class="highcharts-graph" data-z-index="1" stroke="#1F78B4" stroke-width="2" stroke-linejoin="round" stroke-linecap="round" filter="none"></path></g><g class="highcharts-markers highcharts-series-0 highcharts-spline-series" data-z-index="0.1" opacity="1" transform="translate(67,48) scale(1 1)" clip-path="none" aria-hidden="false"><path fill="#fff" d="M 36 119.2 A 4 4 0 1 1 36.00399999933334 119.19999800000016 Z" stroke="#1F78B4" stroke-width="2" opacity="1" class="highcharts-point" tabindex="-1" role="img" aria-label="2024.08.09, 29,200." style="outline: none;"></path><path fill="#fff" d="M 109 145.312 A 4 4 0 1 1 109.00399999933333 145.3119980000002 Z" stroke="#1F78B4" stroke-width="2" opacity="1" class="highcharts-point" tabindex="-1" role="img" aria-label="2024.08.12, 28,112." style="outline: none;"></path><path fill="#fff" d="M 182 148 A 4 4 0 1 1 182.00399999933333 147.99999800000018 Z" stroke="#1F78B4" stroke-width="2" opacity="1" class="highcharts-point" tabindex="-1" role="img" aria-label="2024.08.13, 28,000." style="outline: none;"></path><path fill="#fff" d="M 255 147.664 A 4 4 0 1 1 255.00399999933333 147.66399800000016 Z" stroke="#1F78B4" stroke-width="2" opacity="1" class="highcharts-point" tabindex="-1" role="img" aria-label="2024.08.14, 28,014." style="outline: none;"></path><path fill="#fff" d="M 327 77.296 A 4 4 0 1 1 327.00399999933336 77.29599800000017 Z" stroke="#1F78B4" stroke-width="2" opacity="1" class="highcharts-point" tabindex="-1" role="img" aria-label="2024.08.16, 30,946." style="outline: none;"></path><path fill="#fff" d="M 400 23.464 A 4 4 0 1 1 400.00399999933336 23.463998000000167 Z" stroke="#1F78B4" stroke-width="2" opacity="1" class="highcharts-point" tabindex="-1" role="img" aria-label="2024.08.19, 33,189." style="outline: none;"></path><path fill="#fff" d="M 473 84.736 A 4 4 0 1 1 473.00399999933336 84.73599800000017 Z" stroke="#1F78B4" stroke-width="2" opacity="1" class="highcharts-point" tabindex="-1" role="img" aria-label="2024.08.20, 30,636." style="outline: none;"></path><path fill="#fff" d="M 546 38.19999999999999 A 4 4 0 1 1 546.0039999993334 38.19999800000016 Z" stroke="#1F78B4" stroke-width="2" opacity="1" class="highcharts-point" tabindex="-1" role="img" aria-label="2024.08.21, 32,575." style="outline: none;"></path></g></g><text x="310" text-anchor="middle" class="highcharts-title" data-z-index="4" style="font-size: 1.2em; color: rgb(51, 51, 51); font-weight: bold; fill: rgb(51, 51, 51);" y="25" aria-hidden="true">(소매가격) 과일류/사과/후지,등급:상품,단위:10개</text><text x="330" text-anchor="middle" class="highcharts-subtitle" data-z-index="4" style="color: rgb(102, 102, 102); font-size: 0.8em; fill: rgb(102, 102, 102);" y="44" aria-hidden="true"></text><text x="10" text-anchor="start" class="highcharts-caption" data-z-index="4" style="color: rgb(102, 102, 102); font-size: 0.8em; fill: rgb(102, 102, 102);" y="324" aria-hidden="true"></text><g class="highcharts-axis-labels highcharts-xaxis-labels" data-z-index="7" aria-hidden="true"><text x="106.73733164553721" text-anchor="end" transform="translate(0,0) rotate(-45 106.73733164553721 265)" style="color: rgb(84, 84, 84); cursor: default; font-size: var(--hc-fs); font-family: Poppins, Pretendard, sans-serif; fill: rgb(84, 84, 84);" y="265" opacity="1">2024.08.09</text><text x="179.6123316455372" text-anchor="end" transform="translate(0,0) rotate(-45 179.6123316455372 265)" style="color: rgb(84, 84, 84); cursor: default; font-size: var(--hc-fs); font-family: Poppins, Pretendard, sans-serif; fill: rgb(84, 84, 84);" y="265" opacity="1">2024.08.12</text><text x="252.4873316455372" text-anchor="end" transform="translate(0,0) rotate(-45 252.4873316455372 265)" style="color: rgb(84, 84, 84); cursor: default; font-size: var(--hc-fs); font-family: Poppins, Pretendard, sans-serif; fill: rgb(84, 84, 84);" y="265" opacity="1">2024.08.13</text><text x="325.3623316455372" text-anchor="end" transform="translate(0,0) rotate(-45 325.3623316455372 265)" style="color: rgb(84, 84, 84); cursor: default; font-size: var(--hc-fs); font-family: Poppins, Pretendard, sans-serif; fill: rgb(84, 84, 84);" y="265" opacity="1">2024.08.14</text><text x="398.2373316455372" text-anchor="end" transform="translate(0,0) rotate(-45 398.2373316455372 265)" style="color: rgb(84, 84, 84); cursor: default; font-size: var(--hc-fs); font-family: Poppins, Pretendard, sans-serif; fill: rgb(84, 84, 84);" y="265" opacity="1">2024.08.16</text><text x="471.1123316455372" text-anchor="end" transform="translate(0,0) rotate(-45 471.1123316455372 265)" style="color: rgb(84, 84, 84); cursor: default; font-size: var(--hc-fs); font-family: Poppins, Pretendard, sans-serif; fill: rgb(84, 84, 84);" y="265" opacity="1">2024.08.19</text><text x="543.9873316455372" text-anchor="end" transform="translate(0,0) rotate(-45 543.9873316455372 265)" style="color: rgb(84, 84, 84); cursor: default; font-size: var(--hc-fs); font-family: Poppins, Pretendard, sans-serif; fill: rgb(84, 84, 84);" y="265" opacity="1">2024.08.20</text><text x="616.8623316455372" text-anchor="end" transform="translate(0,0) rotate(-45 616.8623316455372 265)" style="color: rgb(84, 84, 84); cursor: default; font-size: var(--hc-fs); font-family: Poppins, Pretendard, sans-serif; fill: rgb(84, 84, 84);" y="265" opacity="1">2024.08.21</text></g><g class="highcharts-axis-labels highcharts-yaxis-labels" data-z-index="7" aria-hidden="true"><text x="52" text-anchor="end" transform="translate(0,0)" y="246" opacity="1" style="color: rgb(84, 84, 84); cursor: default; font-size: var(--hc-fs); font-family: Poppins, Pretendard, sans-serif; fill: rgb(84, 84, 84);">26,000</text><text x="52" text-anchor="end" transform="translate(0,0)" y="198" opacity="1" style="color: rgb(84, 84, 84); cursor: default; font-size: var(--hc-fs); font-family: Poppins, Pretendard, sans-serif; fill: rgb(84, 84, 84);">28,000</text><text x="52" text-anchor="end" transform="translate(0,0)" y="150" opacity="1" style="color: rgb(84, 84, 84); cursor: default; font-size: var(--hc-fs); font-family: Poppins, Pretendard, sans-serif; fill: rgb(84, 84, 84);">30,000</text><text x="52" text-anchor="end" transform="translate(0,0)" y="102" opacity="1" style="color: rgb(84, 84, 84); cursor: default; font-size: var(--hc-fs); font-family: Poppins, Pretendard, sans-serif; fill: rgb(84, 84, 84);">32,000</text><text x="52" text-anchor="end" transform="translate(0,0)" y="54" opacity="1" style="color: rgb(84, 84, 84); cursor: default; font-size: var(--hc-fs); font-family: Poppins, Pretendard, sans-serif; fill: rgb(84, 84, 84);">34,000</text></g></svg>